<svg xmlns="http://www.w3.org/2000/svg" width="86" height="86" fill="none" viewBox="0 0 86 86">
    <circle cx="43" cy="43" r="43" fill="#F2C94C"/>
    <path fill="#333" d="M61.817 54.425c.371 0 .672-.3.672-.672v-2.016h.672c.371 0 .672-.3.672-.672V43c0-.372-.3-.673-.672-.673h-.672v-2.016c0-.371-.3-.672-.672-.672h-.964l-7.395-12.324 1.988-1.215c.298-.182.407-.562.251-.874l-1.344-2.689c-.085-.168-.237-.294-.418-.346-.18-.051-.376-.024-.537.075L25.335 39.64h-1.152c-.372 0-.672.3-.672.672v2.016h-.672c-.372 0-.672.3-.672.672v8.065c0 .372.3.672.672.672h.672v2.016c0 .372.3.672.672.672h.718l.576 8.064h-3.31v1.344h41.666V62.49h-3.31l.575-8.064h.719zm-.672-1.344h-4.033v-1.344h4.032v1.344zm-31.586 1.344c.372 0 .672-.3.672-.672v-2.016h10.753v6.72H39.64v1.344h6.72v-1.344h-1.344v-6.72h10.752v2.016c0 .372.3.672.672.672h.719l.576 8.064h-29.47l.576-8.064h.718zm-6.048-6.72h1.344v2.688H23.51v-2.688zm2.688 0h1.344v2.688h-1.344v-2.688zm32.257 2.688v-2.688H59.8v2.688h-1.344zm-1.344 0h-1.344v-2.688h1.344v2.688zm-2.688 0H53.08v-2.688h1.344v2.688zm-2.688 0h-1.344v-2.688h1.344v2.688zm-2.688 0h-1.344v-2.688h1.344v2.688zm-2.688 0h-1.344v-2.688h1.344v2.688zm-4.032 8.064v-6.72h1.344v6.72h-1.344zm1.344-8.064h-1.344v-2.688h1.344v2.688zm-2.688 0H39.64v-2.688h1.344v2.688zm-2.689 0h-1.344v-2.688h1.344v2.688zm-2.688 0h-1.344v-2.688h1.344v2.688zm-2.688 0h-1.344v-2.688h1.344v2.688zm-2.688 0h-1.344v-2.688h1.344v2.688zm30.913 0v-2.688h1.345v2.688h-1.344zM59.287 39.64H33.292l19.02-11.623 6.974 11.623zM53.48 23.8l.738 1.477L30.714 39.64H27.89L53.48 23.8zM24.855 40.983h36.29v1.344h-36.29v-1.344zm37.634 2.688v2.689H23.51v-2.688h38.978zm-37.634 8.065h4.032v1.344h-4.032v-1.344zm1.394 2.688h1.245l-.577 8.064h-.092l-.576-8.064zm32.926 8.064h-.094l-.576-8.064h1.246l-.576 8.064zM24.183 36.28c1.111 0 2.016-.904 2.016-2.016v-3.36h2.688V29.56h-3.36c-.372 0-.672.3-.672.672v2.14c-.211-.075-.436-.124-.672-.124-1.112 0-2.016.905-2.016 2.016 0 1.112.904 2.016 2.016 2.016zm0-2.688c.37 0 .672.301.672.672 0 .371-.301.672-.672.672-.371 0-.672-.3-.672-.672 0-.37.3-.672.672-.672zM33.591 28.888c1.112 0 2.016-.905 2.016-2.016v-3.36h2.688v-1.344h-3.36c-.371 0-.672.3-.672.672v2.14c-.21-.076-.435-.124-.672-.124-1.111 0-2.016.904-2.016 2.016 0 1.111.905 2.016 2.016 2.016zm0-2.688c.371 0 .672.301.672.672 0 .37-.3.672-.672.672-.37 0-.672-.301-.672-.672 0-.371.301-.672.672-.672z"/>
</svg>
