<svg xmlns="http://www.w3.org/2000/svg" width="86" height="86" fill="none" viewBox="0 0 86 86">
    <circle cx="43" cy="43" r="43" fill="#F2C94C"/>
    <path fill="#333" d="M56.135 45.686c0-1.51-1.102-2.767-2.543-3.01V37.12c.999-.3 1.729-1.229 1.729-2.324v-7.984c0-2.561-2.084-4.645-4.646-4.645H35.96c-2.562 0-4.646 2.084-4.646 4.645v.563c0 .337.273.61.61.61.337 0 .61-.273.61-.61v-.563c0-1.888 1.537-3.425 3.425-3.425h14.716c1.889 0 3.425 1.537 3.425 3.425v7.984c0 .665-.54 1.205-1.205 1.205H33.74c-.665 0-1.206-.54-1.206-1.205v-4.817c0-.337-.273-.61-.61-.61-.337 0-.61.273-.61.61v4.817c0 1.118.76 2.062 1.79 2.342v5.529c-1.471.217-2.604 1.488-2.604 3.019 0 1.53 1.133 2.801 2.604 3.019v13.297c0 1.01.822 1.831 1.831 1.831 1.01 0 1.831-.821 1.831-1.83v-3.825H49.93v3.824c0 1.01.822 1.831 1.832 1.831 1.01 0 1.83-.821 1.83-1.83V48.694c1.442-.243 2.544-1.5 2.544-3.01zm-3.764-8.464v5.412h-1.22v-5.412h1.22zm-16.825 0v5.412h-1.221v-5.412h1.22zm0 24.78c0 .337-.274.61-.61.61-.337 0-.611-.273-.611-.61V48.737h1.22v2.049c0 .337.274.61.61.61.338 0 .611-.273.611-.61v-2.049H49.93v5.778H36.766v-1.098c0-.337-.273-.61-.61-.61-.337 0-.61.273-.61.61v8.585zm1.22-5.045v-1.22H49.93v1.22H36.766zm15.605 5.045c0 .337-.274.61-.61.61-.337 0-.61-.273-.61-.61V48.737h1.22v13.265zm.712-14.485H33.552c-1.01 0-1.831-.822-1.831-1.831 0-1.01.821-1.831 1.83-1.831h12.37c.338 0 .61-.273.61-.61 0-.338-.272-.611-.61-.611h-9.155v-5.412H49.93v5.412h-1.417c-.337 0-.61.273-.61.61 0 .337.273.61.61.61h4.571c1.01 0 1.831.822 1.831 1.832 0 1.01-.821 1.83-1.831 1.83z"/>
</svg>
