<svg xmlns="http://www.w3.org/2000/svg" width="86" height="86" fill="none" viewBox="0 0 86 86">
    <circle cx="43" cy="43" r="43" fill="#F2C94C"/>
    <path fill="#333" d="M32.127 35.361h-2.778c-.184 0-.36.073-.49.204-.131.13-.204.306-.204.49v4.167c0 .184.073.361.203.491s.307.204.491.204h2.778c.184 0 .36-.073.491-.204.13-.13.203-.306.203-.49v5.555c0 5.366 3.824 9.855 8.89 10.888l-.404 1.612h-.847c-1.288.001-2.524.514-3.435 1.425-.912.912-1.424 2.147-1.426 3.436 0 .184.073.36.204.491.13.13.306.203.49.203h15.279c.184 0 .36-.073.49-.203s.204-.307.204-.491c-.002-1.289-.514-2.524-1.425-3.436-.912-.911-2.147-1.424-3.436-1.425h-.847l-.403-1.612c5.065-1.033 8.889-5.522 8.889-10.888v-5.556c0 .184.073.361.203.491s.307.204.491.204h2.778c.184 0 .36-.073.49-.204.131-.13.204-.306.204-.49v-4.167c0-.184-.073-.361-.203-.491s-.307-.204-.491-.204h-2.778c-.184 0-.36.073-.49.204-.131.13-.204.306-.204.49h-1.39c0-.184-.072-.36-.203-.49-.13-.13-.306-.204-.49-.204h-.695v-4.86c0-2.211-.878-4.33-2.44-5.893-1.564-1.563-3.683-2.441-5.893-2.441s-4.33.878-5.893 2.44C36.477 26.17 35.6 28.29 35.6 30.5v4.861h-.695c-.184 0-.361.073-.491.204-.13.13-.204.306-.204.49h-1.389c0-.184-.073-.36-.203-.49s-.307-.204-.491-.204zm-2.083 4.167V36.75h1.389v2.778h-1.39zm20.764 22.916h-13.75c.16-.783.587-1.487 1.207-1.993.62-.506 1.395-.783 2.195-.784h6.945c.8 0 1.575.278 2.195.784.62.506 1.046 1.21 1.208 1.993zM44.78 56.89l.347 1.389h-2.388l.347-1.389h1.694zm8.875-11.111c0 2.578-1.025 5.051-2.848 6.875-1.823 1.823-4.296 2.847-6.874 2.847-2.579 0-5.052-1.024-6.875-2.847-1.823-1.824-2.848-4.297-2.848-6.875v-5.556h1.39v5.556c0 2.21.877 4.33 2.44 5.892 1.563 1.563 3.682 2.441 5.893 2.441 2.21 0 4.33-.878 5.892-2.44 1.563-1.563 2.44-3.683 2.44-5.893v-5.556h1.39v5.556zm-2.778-5.556v1.39H36.988v-1.39h13.889zm-13.889 4.861V43h13.889v2.083H36.988zm13.854 1.39c-.172 1.712-.974 3.3-2.25 4.456-1.277 1.155-2.938 1.794-4.66 1.794-1.721 0-3.382-.64-4.658-1.794-1.277-1.156-2.08-2.744-2.251-4.457h13.82zm6.98-9.723v2.778h-1.39V36.75h1.39zm-2.778.694v1.39h-1.39v-1.39h1.39zM36.988 30.5c0-1.842.732-3.608 2.034-4.91 1.302-1.303 3.069-2.034 4.91-2.034 1.842 0 3.609.731 4.911 2.034 1.302 1.302 2.034 3.068 2.034 4.91v4.861H36.988v-4.86zm15.278 6.25v2.083H35.599V36.75h16.667zm-18.056.694v1.39h-1.389v-1.39h1.39z"/>
    <path fill="#333" d="M43.932 33.972c.384 0 .695-.31.695-.694 0-.384-.311-.694-.695-.694-.383 0-.694.31-.694.694 0 .383.311.694.694.694zM43.932 31.195c.384 0 .695-.311.695-.695 0-.383-.311-.694-.695-.694-.383 0-.694.31-.694.694 0 .384.311.695.694.695zM43.932 28.417c.384 0 .695-.311.695-.695 0-.383-.311-.694-.695-.694-.383 0-.694.31-.694.694 0 .384.311.695.694.695zM43.932 25.639c.384 0 .695-.311.695-.695 0-.383-.311-.694-.695-.694-.383 0-.694.31-.694.694 0 .384.311.695.694.695zM46.71 33.972c.384 0 .695-.31.695-.694 0-.384-.311-.694-.695-.694-.383 0-.694.31-.694.694 0 .383.31.694.694.694zM46.71 31.195c.384 0 .695-.311.695-.695 0-.383-.311-.694-.695-.694-.383 0-.694.31-.694.694 0 .384.31.695.694.695zM46.71 28.417c.384 0 .695-.311.695-.695 0-.383-.311-.694-.695-.694-.383 0-.694.31-.694.694 0 .384.31.695.694.695zM46.71 25.639c.384 0 .695-.311.695-.695 0-.383-.311-.694-.695-.694-.383 0-.694.31-.694.694 0 .384.31.695.694.695zM49.488 33.972c.384 0 .695-.31.695-.694 0-.384-.311-.694-.695-.694-.383 0-.694.31-.694.694 0 .383.31.694.694.694zM49.488 31.195c.384 0 .695-.311.695-.695 0-.383-.311-.694-.695-.694-.383 0-.694.31-.694.694 0 .384.31.695.694.695zM49.488 28.417c.384 0 .695-.311.695-.695 0-.383-.311-.694-.695-.694-.383 0-.694.31-.694.694 0 .384.31.695.694.695zM41.155 33.972c.383 0 .694-.31.694-.694 0-.384-.31-.694-.694-.694-.384 0-.695.31-.695.694 0 .383.311.694.695.694zM41.155 31.195c.383 0 .694-.311.694-.695 0-.383-.31-.694-.694-.694-.384 0-.695.31-.695.694 0 .384.311.695.695.695zM41.155 28.417c.383 0 .694-.311.694-.695 0-.383-.31-.694-.694-.694-.384 0-.695.31-.695.694 0 .384.311.695.695.695zM41.155 25.639c.383 0 .694-.311.694-.695 0-.383-.31-.694-.694-.694-.384 0-.695.31-.695.694 0 .384.311.695.695.695zM38.377 33.972c.384 0 .694-.31.694-.694 0-.384-.31-.694-.694-.694-.384 0-.694.31-.694.694 0 .383.31.694.694.694zM38.377 31.195c.384 0 .694-.311.694-.695 0-.383-.31-.694-.694-.694-.384 0-.694.31-.694.694 0 .384.31.695.694.695zM38.377 28.417c.384 0 .694-.311.694-.695 0-.383-.31-.694-.694-.694-.384 0-.694.31-.694.694 0 .384.31.695.694.695zM46.711 50.462c.142 0 .28-.043.397-.125.64-.448 1.181-1.026 1.586-1.696.095-.157.124-.346.08-.525-.045-.179-.159-.333-.316-.428-.158-.095-.347-.123-.526-.079-.179.044-.333.158-.428.316-.304.503-.71.936-1.19 1.273-.122.085-.213.206-.261.346-.048.14-.05.291-.005.432.044.141.133.264.252.352.12.087.263.134.411.134zM43.932 51.333c.266 0 .53-.018.793-.056.183-.026.347-.123.458-.27.11-.148.157-.333.131-.516-.026-.182-.123-.346-.27-.457-.148-.11-.333-.158-.515-.132-.198.028-.397.042-.597.042-.184 0-.36.074-.49.204s-.204.307-.204.49c0 .185.073.362.203.492s.307.203.491.203zM33.517 32.584c.13 0 .258-.038.37-.107.11-.07.199-.17.255-.287.057-.118.079-.25.064-.38s-.066-.253-.148-.355c-.694-.86-1.073-1.933-1.073-3.038 0-1.106.379-2.178 1.073-3.038.115-.144.169-.328.148-.511-.02-.183-.112-.35-.256-.466-.144-.115-.327-.168-.51-.148-.184.02-.351.113-.466.257-.887 1.108-1.37 2.486-1.37 3.906s.483 2.797 1.37 3.906c.065.081.147.147.241.192.094.045.197.069.301.069zM30.91 33.972c.132 0 .262-.038.374-.11.112-.071.2-.173.256-.294.056-.12.075-.255.057-.386-.019-.132-.074-.255-.16-.356-1.053-1.228-1.632-2.792-1.632-4.41 0-1.616.579-3.18 1.631-4.408.116-.14.172-.32.156-.502-.015-.18-.101-.349-.24-.467-.137-.119-.316-.178-.498-.166-.181.012-.35.095-.472.23-1.268 1.48-1.965 3.365-1.965 5.314 0 1.949.697 3.833 1.965 5.313.065.076.146.137.237.18.091.04.19.063.29.063zM53.915 32.431c.071.057.153.1.24.125.088.026.18.034.27.023.091-.01.18-.037.26-.081.079-.044.15-.104.206-.175.887-1.109 1.37-2.486 1.37-3.906s-.483-2.798-1.37-3.906c-.115-.144-.282-.236-.465-.257-.183-.02-.367.033-.51.148-.145.115-.237.283-.257.466-.02.183.033.367.148.51.694.86 1.073 1.933 1.073 3.039 0 1.105-.379 2.178-1.073 3.038-.057.071-.1.153-.125.24-.025.088-.033.18-.023.27.01.091.038.179.082.259.044.08.103.15.174.207z"/>
    <path fill="#333" d="M56.504 33.805c.14.12.322.18.506.165.183-.014.354-.1.474-.24 1.268-1.48 1.965-3.364 1.965-5.313 0-1.95-.697-3.834-1.965-5.313-.12-.14-.29-.227-.475-.24-.183-.015-.365.044-.505.164-.14.12-.226.29-.24.474-.014.184.045.366.165.506 1.052 1.227 1.631 2.791 1.631 4.409 0 1.617-.579 3.18-1.631 4.409-.06.069-.105.15-.133.236-.028.087-.04.178-.032.269.007.091.032.18.073.261.041.081.098.154.167.213z"/>
</svg>
